<svg width="640" height="640" viewBox="0 0 640 640" fill="none" xmlns="http://www.w3.org/2000/svg">
<g clip-path="url(#clip0_80411_226)">
<mask id="mask0_80411_226" style="mask-type:luminance" maskUnits="userSpaceOnUse" x="0" y="0" width="640" height="640">
<path d="M640 0H0V640H640V0Z" fill="white"/>
</mask>
<g mask="url(#mask0_80411_226)">
<path opacity="0.746" fill-rule="evenodd" clip-rule="evenodd" d="M640 0.81968C568.737 3.23596 498 9.96088 427.789 20.9945C424.663 16.9972 423.538 12.5137 424.421 7.54462C495.069 0.857342 566.931 -1.38475 640 0.81968Z" fill="#66EFBB"/>
<path fill-rule="evenodd" clip-rule="evenodd" d="M640 0.81958C640.319 246.3 534.77 433.482 323.368 562.352C222.989 617.389 116.323 643.175 3.36859 639.687C-1.12286 567.954 -1.12286 496.225 3.36859 424.491C255.273 396.071 395.628 257.087 424.421 7.54451C423.538 12.5136 424.663 16.9971 427.789 20.9944C498.001 9.96082 568.737 3.23586 640 0.81958Z" fill="#0AE58F"/>
</g>
</g>
<defs>
<clipPath id="clip0_80411_226">
<rect width="640" height="640" fill="white"/>
</clipPath>
</defs>
</svg>
